<svg xmlns="http://www.w3.org/2000/svg" xmlns:xlink="http://www.w3.org/1999/xlink" preserveAspectRatio="xMidYMid" width="64" height="44" viewBox="0 0 64 44">
  <defs>
    <style>
      .cls-1 {
        fill: #e6e6e6;
      }

      .cls-1, .cls-2, .cls-3 {
        fill-rule: evenodd;
      }

      .cls-2 {
        fill: #ed7161;
      }

      .cls-3 {
        fill: #fc6;
      }
    </style>
  </defs>
  <g>
    <path d="M4.000,-0.000 L60.000,-0.000 C62.209,-0.000 64.000,1.790 64.000,4.000 L64.000,40.000 C64.000,42.209 62.209,44.000 60.000,44.000 L4.000,44.000 C1.791,44.000 -0.000,42.209 -0.000,40.000 L-0.000,4.000 C-0.000,1.790 1.791,-0.000 4.000,-0.000 Z" class="cls-1"/>
    <path d="M8.000,22.000 C8.000,14.267 14.264,8.000 21.992,8.000 C29.720,8.000 35.985,14.267 35.985,22.000 C35.985,29.731 29.720,36.000 21.992,36.000 C14.264,36.000 8.000,29.731 8.000,22.000 Z" class="cls-2"/>
    <path d="M27.995,22.000 C27.995,14.267 34.264,8.000 41.998,8.000 C49.731,8.000 56.000,14.267 56.000,22.000 C56.000,29.731 49.731,36.000 41.998,36.000 C34.264,36.000 27.995,29.731 27.995,22.000 Z" class="cls-3"/>
    <path d="M28.156,20.000 L35.844,20.000 C35.936,20.659 36.000,21.325 36.000,22.000 L28.000,22.000 C28.000,21.325 28.064,20.659 28.156,20.000 ZM30.397,14.000 C30.873,13.278 31.407,12.605 32.000,12.000 C32.592,12.605 33.127,13.278 33.602,14.000 L30.397,14.000 ZM28.570,17.999 C28.767,17.310 29.020,16.645 29.310,16.000 L34.689,16.000 C34.980,16.645 35.233,17.310 35.429,17.999 L28.570,17.999 ZM30.397,30.000 C29.983,29.371 29.625,28.698 29.310,28.000 L34.689,28.000 C34.374,28.698 34.017,29.371 33.602,30.000 L30.397,30.000 ZM35.844,24.000 C35.749,24.679 35.615,25.348 35.429,25.999 L28.570,25.999 C28.384,25.348 28.251,24.679 28.156,24.000 L35.844,24.000 Z" class="cls-2"/>
  </g>
</svg>
