<svg xmlns="http://www.w3.org/2000/svg" ="http://www.w3.org/1999/xlink" preserveAspectRatio="xMidYMid" width="64" height="44" viewBox="0 0 64 44">
  <defs>
    <style>
      .cls-1 {
        fill: #48a0dc;
      }

      .cls-1, .cls-2, .cls-3 {
        fill-rule: evenodd;
      }

      .cls-2 {
        fill: #fff;
      }

      .cls-3 {
        fill: #fc6;
      }
    </style>
  </defs>
  <g>
    <path d="M4.000,-0.000 L60.000,-0.000 C62.209,-0.000 64.000,1.790 64.000,4.000 L64.000,40.000 C64.000,42.209 62.209,44.000 60.000,44.000 L4.000,44.000 C1.791,44.000 -0.000,42.209 -0.000,40.000 L-0.000,4.000 C-0.000,1.790 1.791,-0.000 4.000,-0.000 Z" class="cls-1"/>
    <path d="M52.435,29.982 L51.858,26.796 L47.336,26.796 L46.223,29.970 L42.182,29.970 L47.903,15.315 C48.299,14.310 48.996,14.030 49.916,14.030 L52.895,14.030 L56.001,29.982 L52.435,29.982 ZM50.009,18.415 C50.009,18.415 48.535,23.603 48.457,23.595 C49.218,23.595 51.182,23.595 51.182,23.595 L50.009,18.415 ZM42.151,17.839 C41.453,17.526 40.534,17.214 39.282,17.246 C37.761,17.246 37.080,17.922 37.064,18.581 C37.064,19.306 37.888,19.783 39.235,20.493 C41.453,21.596 42.483,22.948 42.468,24.711 C42.436,27.924 39.805,30.000 35.764,30.000 C34.037,29.983 32.373,29.605 31.470,29.177 L32.009,25.699 L32.516,25.947 C33.768,26.524 34.592,26.771 36.129,26.771 C37.238,26.771 38.427,26.293 38.443,25.254 C38.443,24.579 37.935,24.084 36.446,23.327 C34.988,22.585 33.039,21.350 33.070,19.125 C33.087,16.109 35.764,14.000 39.568,14.000 C41.057,14.000 42.262,14.346 43.022,14.659 L42.500,18.004 L42.151,17.839 ZM25.211,29.970 L27.619,13.980 L31.470,13.980 L29.061,29.970 L25.211,29.970 ZM15.940,29.953 L12.486,16.208 C14.926,17.542 17.113,20.229 17.810,22.701 L18.222,24.843 L21.994,13.980 L26.066,13.980 L20.013,29.953 L15.940,29.953 Z" class="cls-2"/>
    <path d="M14.037,13.981 L14.037,13.981 L8.061,13.981 L7.999,14.279 C12.661,15.503 15.749,18.453 17.017,22.000 L15.718,15.221 C15.504,14.279 14.847,14.013 14.037,13.981 " class="cls-3"/>
  </g>
</svg>
